# xmcd
#
# Track frame offsets: 
#        150
#        7666
#        13873
#        25181
#        32056
#        39638
#        50232
#        61459
#        71323
#        77601
#
# Disc length: 1190 seconds
#
# Revision: 0
# Processed by: cddbd v1.5.2PL0 Copyright (c) Steve Scherf et al.
# Submitted via: ExactAudioCopyFreeDBPlugin 1.0
#
DISCID=7604a40a
DTITLE=Dave Rubin - Blues Cruise
DYEAR=2007
DGENRE=Guitar Lesson
TTITLE0=Delta Catfish
TTITLE1=Detroit Boogie
TTITLE2=Hill Country Stomp
TTITLE3=Houston Shuffle
TTITLE4=Kansas City Swing
TTITLE5=Louisana Gumbo
TTITLE6=Memphis Soul
TTITLE7=Southside Man
TTITLE8=West Coast Strut
TTITLE9=Westside Minor Groove
EXTD=
EXTT0=
EXTT1=
EXTT2=
EXTT3=
EXTT4=
EXTT5=
EXTT6=
EXTT7=
EXTT8=
EXTT9=
PLAYORDER=
